<?xml version="1.0" encoding="UTF-8"?>
<svg version="1.1" viewBox="0 0 24 24" xmlns="http://www.w3.org/2000/svg">
<g transform="translate(0 -1028.4)">
<path d="m5 1031.4c-1.1046 0-2 0.9-2 2v14c0 1.1 0.8954 2 2 2h14c1.105 0 2-0.9 2-2v-13l-3-3h-13z" fill="#3498db"/>
<path d="m7 1031.4v6c0 0.5 0.4477 1 1 1h8c0.552 0 1-0.5 1-1v-6h-10z" fill="#2980b9"/>
<path transform="translate(0 1028.4)" d="m7 3v5c0 0.5523 0.4477 1 1 1h8c0.552 0 1-0.4477 1-1v-5h-10z" fill="#ecf0f1"/>
<path d="m6 1040.4c-0.5523 0-1 0.4-1 1v8h14v-8c0-0.6-0.448-1-1-1h-12z" fill="#ecf0f1"/>
<g fill="#bdc3c7">
<rect x="5" y="1048.4" width="14" height="1"/>
<rect x="7" y="1042.4" width="10" height="1"/>
<rect x="7" y="1044.4" width="10" height="1"/>
</g>
<rect x="13" y="1032.4" width="3" height="4" fill="#3498db"/>
<rect x="13" y="1032.4" width="3" height=".99998" fill="#2980b9"/>
</g>
</svg>
